# AST/ASF file generated using VICON BodyLanguage
# -----------------------------------------------
:version 1.10
:name VICON
:units
  mass 1.0
  length 0.45
  angle deg
:documentation
   .ast/.asf automatically generated from VICON data using
   VICON BodyBuilder and BodyLanguage model FoxedUp or BRILLIANT.MOD
:root
   order TX TY TZ RX RY RZ
   axis XYZ
   position 0 0 0  
   orientation 0 0 0 
:bonedata
  begin
     id 1 
     name lhipjoint
     direction 0.543289 -0.788407 0.288535 
     length 2.57127 
     axis 0 0 0  XYZ
  end
  begin
     id 2 
     name lfemur
     direction 0.34202 -0.939693 0  
     length 8.47298  
     axis 0 0 20  XYZ
    dof rx ry rz
    limits (-160.0 20.0)
           (-70.0 70.0)
           (-60.0 70.0)
  end
  begin
     id 3 
     name ltibia
     direction 0.34202 -0.939693 0   
     length 8.13367   
     axis 0 0 20   XYZ
    dof rx
    limits (-10.0 170.0)
  end
  begin
     id 4 
     name lfoot
     direction 0.114037 -0.313314 0.942778   
     length 2.67113   
     axis -90 7.62852e-016 20   XYZ
    dof rx rz
    limits (-45.0 90.0)
           (-70.0 20.0)
  end
  begin
     id 5 
     name ltoes
     direction 1.536e-011 -4.21847e-011 1   
     length 1.32217   
     axis -90 7.62852e-016 20   XYZ
    dof rx
    limits (-90.0 20.0)
  end
  begin
     id 6 
     name rhipjoint
     direction -0.571293 -0.770752 0.282074   
     length 2.63017  
     axis 0 0 0  XYZ 
  end
  begin
     id 7 
     name rfemur
     direction -0.34202 -0.939693 0   
     length 8.60885   
     axis 0 0 -20   XYZ
    dof rx ry rz
    limits (-160.0 20.0)
           (-70.0 70.0)
           (-70.0 60.0)
  end
  begin
     id 8 
     name rtibia
     direction -0.34202 -0.939693 0   
     length 8.07673   
     axis 0 0 -20   XYZ
    dof rx
    limits (-10.0 170.0)
 end
 begin
     id 9 
     name rfoot
     direction -0.121336 -0.333368 0.934956   
     length 2.81602  
     axis -90 -7.62852e-016 -20   XYZ
    dof rx rz
    limits (-45.0 90.0)
           (-20.0 70.0)
  end
  begin
     id 10 
     name rtoes
     direction -1.53491e-011 -4.21808e-011 1   
     length 1.38905   
     axis -90 -7.62852e-016 -20   XYZ
    dof rx
    limits (-90.0 20.0)
  end
  begin
     id 11 
     name lowerback
     direction 0.0136776 0.999869 -0.00861835   
     length 2.14087   
     axis 0 0 0   XYZ
    dof rx ry rz
    limits (-20.0 45.0)
           (-30.0 30.0)
           (-30.0 30.0)
  end
  begin
     id 12 
     name upperback
     direction -0.00789158 0.999804 0.0181308   
     length 2.14151   
     axis 0 0 0   XYZ
    dof rx ry rz
    limits (-20.0 45.0)
           (-30.0 30.0)
           (-30.0 30.0)
  end
  begin
     id 13 
     name thorax
     direction -0.0135231 0.999666 0.0220247   
     length 2.13644   
     axis 0 0 0   XYZ
    dof rx ry rz
    limits (-20.0 45.0)
           (-30.0 30.0)
           (-30.0 30.0)
  end
  begin
     id 14 
     name lowerneck
     direction -0.0392259 0.997317 0.0618018   
     length 1.65045   
     axis 0 0 0   XYZ
    dof rx ry rz
    limits (-20.0 45.0)
           (-30.0 30.0)
           (-30.0 30.0)
  end
  begin
     id 15 
     name upperneck
     direction 0.0765547 0.994276 -0.0745319   
     length 1.66045   
     axis 0 0 0   XYZ
    dof rx ry rz
    limits (-20.0 45.0)
           (-30.0 30.0)
           (-30.0 30.0)
  end
  begin
     id 16
     name head
     direction 0.0241564 0.999031 -0.036785  
     length 1.66594  
     axis 0 0 0   XYZ
    dof rx ry rz
    limits (-20.0 45.0)
           (-30.0 30.0)
           (-30.0 30.0)
  end
  begin
     id 17 
     name lclavicle
     direction 0.967398 0.249018 0.0461573  
     length 3.75176  
     axis 0 0 0   XYZ
    dof ry rz
    limits (-20.0 10.0)
           (0.0 20.0)
  end
  begin
     id 18 
     name lhumerus
     direction 1 -4.48963e-011 -3.05005e-027   
     length 5.93342   
     axis 180 -30 -90   XYZ
    dof rx ry rz
    limits (-60.0 90.0)
           (-90.0 90.0)
           (-90.0 90.0)
  end
  begin
     id 19
     name lradius
     direction 1 -4.48957e-011 1.07006e-026   
     length 3.94763   
     axis 180 -30 -90   XYZ
    dof rx
    limits (-10.0 170.0)
  end
  begin
     id 20
     name lwrist
     direction 1 -4.48978e-011 1.92422e-026   
     length 1.97382   
     axis -1.18182e-014 90 90   XYZ
    dof ry
    limits (-180.0 0.0)
 end
  begin
     id 21 
     name lhand
     direction 1 -4.48931e-011 3.84844e-026   
     length 0.560187   
     axis -2.45563e-014 90 90   XYZ
    dof rx rz
    limits (-90.0 90.0)
           (-45.0 45.0)
  end
  begin
     id 22 
     name lfingers
     direction 1 -4.48952e-011 7.69687e-026   
     length 0.451637   
     axis -4.91126e-014 90 90   XYZ
    dof rx
    limits (0.0 90.0)
  end
  begin
     id 23
     name lthumb
     direction 0.707107 -6.34901e-011 0.707107   
     length 0.648463   
     axis -90 45 2.85299e-015   XYZ
    dof rx rz
    limits (-45.0 45.0)
           (-45.0 45.0)
  end
  begin
     id 24 
     name rclavicle
     direction -0.965946 0.258716 0.00371831   
     length 3.63667  
     axis 0 0 0   XYZ 
    dof ry rz
    limits (-10.0 20.0)
           (-20.0 0.0)
  end
  begin
     id 25 
     name rhumerus
     direction -1 -4.48966e-011 -1.78361e-028  
     length 6.28647   
     axis 180 30 90   XYZ
    dof rx ry rz
    limits (-90.0 60.0)
           (-90.0 90.0)
           (-90.0 90.0)
  end
  begin
     id 26 
     name rradius
     direction -1 -4.48961e-011 1.05248e-026   
     length 3.81645   
     axis 180 30 90   XYZ
    dof rx
    limits (-10.0 170.0)
  end
  begin
     id 27 
     name rwrist
     direction -1 -4.48979e-011 1.92422e-026   
     length 1.90822   
     axis -1.18182e-014 -90 -90   XYZ
    dof ry
    limits (-180.0 0.0)
  end
  begin
     id 28
     name rhand
     direction -1 -4.48937e-011 3.84844e-026   
     length 0.646185   
     axis -2.45563e-014 -90 -90   XYZ
    dof rx rz
    limits (-90.0 90.0)
           (-45.0 45.0)
  end
  begin
     id 29
     name rfingers
     direction -1 -4.48953e-011 7.69687e-026   
     length 0.520971   
     axis -4.91126e-014 -90 -90   XYZ
    dof rx
    limits (0.0 90.0)
  end
  begin
     id 30
     name rthumb
     direction -0.707107 -6.3494e-011 0.707107   
     length 0.748013   
     axis -90 -45 -2.85299e-015   XYZ
    dof rx rz
    limits (-45.0 45.0)
           (-45.0 45.0)
  end
:hierarchy
  begin
    root lhipjoint rhipjoint lowerback
    lhipjoint lfemur
    lfemur ltibia
    ltibia lfoot
    lfoot ltoes
    rhipjoint rfemur
    rfemur rtibia
    rtibia rfoot
    rfoot rtoes
    lowerback upperback
    upperback thorax
    thorax lowerneck lclavicle rclavicle
    lowerneck upperneck
    upperneck head
    lclavicle lhumerus
    lhumerus lradius
    lradius lwrist
    lwrist lhand lthumb
    lhand lfingers
    rclavicle rhumerus
    rhumerus rradius
    rradius rwrist
    rwrist rhand rthumb
    rhand rfingers
  end

#!OML:ASF H:\HAZMAT1\Patient Classification 1\Patient 3\Session 1\dancer.ASF
:FULLY-SPECIFIED
:DEGREES
15
upperback -2.687850 -3.780900 -0.141768
rfoot -6.566100 -2.450240
lradius 24.077200
lthumb 10.375700 49.572498
rradius 26.601400
lwrist -15.771600
rhand -18.374001 -19.321400
rhumerus -37.779900 0.753102 -88.762604
lowerneck -5.217910 -0.833552 -0.622740
lhand -15.818000 19.848499
ltibia 38.044899
head 2.469690 -0.539811 0.837761
rwrist 10.606400
lfingers 7.125020
rtoes -2.108370
lowerback -0.498207 -2.860740 4.300980
rfingers 7.125020
lclavicle -0.000000 -0.000000
upperneck 4.887720 -1.211240 2.429210
rfemur -30.058100 -5.033720 21.630400
thorax -2.777930 -1.991950 -2.466860
rclavicle -0.000000 -0.000000
rtibia 73.514198
lfoot -16.818501 8.906630
lhumerus -34.330200 3.676790 80.227699
rthumb 7.909390 -49.153400
root 16.819700 18.999500 40.026600 6.418830 3.686070 -4.055060
ltoes 14.272200
lfemur -25.436501 -20.576401 -18.027599
16
upperback -2.941800 -3.151350 -0.325904
rfoot 1.771520 1.825020
lradius 26.913401
lthumb 9.738180 49.240002
rradius 25.143299
lwrist -13.942300
rhand -18.496099 -19.069599
rhumerus -38.683701 -1.265830 -87.208199
lowerneck -5.772910 -0.813797 -0.562507
lhand -16.478800 19.485100
ltibia 37.402401
head 2.776260 -0.527319 0.654495
rwrist 12.313900
lfingers 7.125020
rtoes 3.969560
lowerback -1.608300 -2.351800 3.866940
rfingers 7.125020
lclavicle 0.000000 -0.000000
upperneck 5.513960 -1.166490 1.882420
rfemur -15.148800 -6.332600 19.738899
thorax -2.353040 -1.666830 -2.476930
rclavicle 0.000000 -0.000000
rtibia 70.840500
lfoot -13.556900 7.753200
lhumerus -36.998600 6.546450 78.054199
rthumb 7.791540 -48.906101
root 16.744400 18.976999 39.075500 5.695540 2.677980 -3.702070
ltoes 14.799400
lfemur -27.658300 -18.885099 -17.422100
17
upperback -3.411710 -2.239700 -0.451708
rfoot -9.290940 3.742520
lradius 25.317699
lthumb 10.401600 49.322899
rradius 27.914301
lwrist -15.102400
rhand -18.299500 -19.168800
rhumerus -37.303799 0.788164 -89.031898
lowerneck -5.884950 -0.599906 -0.505222
lhand -15.791100 19.600201
ltibia 39.162300
head 3.018310 -0.388478 0.385502
rwrist 10.451100
lfingers 7.125020
rtoes 1.427100
lowerback -2.385920 -1.650190 3.584350
rfingers 7.125020
lclavicle 0.000000 0.000000
upperneck 6.198530 -0.834272 1.033530
rfemur -2.419360 -0.954129 22.130600
thorax -2.328530 -1.213540 -2.475360
rclavicle 0.000000 0.000000
rtibia 48.324699
lfoot -10.401600 9.372980
lhumerus -40.392502 10.575500 73.197998
rthumb 7.981300 -48.998100
root 16.432699 18.712000 37.470600 6.041530 0.576531 -3.040100
ltoes 16.493299
lfemur -34.856400 -19.053699 -14.576500
18
upperback -3.258500 -1.780360 0.182584
rfoot -31.868200 -11.724600
lradius 24.174200
lthumb 11.405500 49.713402
rradius 34.764999
lwrist -16.498800
rhand -17.624500 -19.593000
rhumerus -33.574100 2.568590 -89.363297
lowerneck -4.757240 0.026518 0.441138
lhand -14.750300 20.043600
ltibia 36.815701
head 2.010900 0.007481 -0.353430
rwrist 8.964930
lfingers 7.125020
rtoes -1.253240
lowerback -2.154250 -1.306530 6.006280
rfingers 7.125020
lclavicle -0.000000 -0.000000
upperneck 3.833940 0.048493 -0.889481
rfemur -2.767840 9.613630 28.792500
thorax -2.335620 -1.030120 -3.174140
rclavicle -0.000000 -0.000000
rtibia 34.222198
lfoot -19.142200 14.739700
lhumerus -42.520302 14.530800 70.168098
rthumb 8.632710 -49.396500
root 15.947500 18.328400 34.846802 8.818200 -1.276530 -3.723570
ltoes 5.073850
lfemur -46.566299 -22.849001 -4.338860
19
upperback -2.631480 -3.056720 0.611164
rfoot -30.972900 -14.524400
lradius 20.214199
lthumb 12.134100 48.164501
rradius 28.501301
lwrist -22.366301
rhand -20.846800 -21.166300
rhumerus -37.430599 -4.558940 -81.843002
lowerneck -4.642920 0.333760 0.803495
lhand -13.994800 18.536400
ltibia 41.774799
head 2.117760 0.206285 -0.485196
rwrist 10.831700
lfingers 7.125020
rtoes 8.594610
lowerback -2.253850 -2.240800 6.762090
rfingers 7.125020
lclavicle 0.000000 -0.000000
upperneck 4.205120 0.450345 -1.148740
rfemur -12.385400 9.268130 28.752800
thorax -1.778030 -1.646470 -3.163120
rclavicle 0.000000 -0.000000
rtibia 37.582901
lfoot -18.247299 7.904380
lhumerus -44.856300 16.185301 69.909599
rthumb 5.522290 -51.074402
root 15.609900 18.541000 32.405998 8.438500 0.504144 -2.999320
ltoes 13.527100
lfemur -43.882801 -19.835199 -8.299340
20
upperback -2.769890 -3.277600 0.197856
rfoot -29.003500 -16.055901
lradius 24.346701
lthumb 10.315700 49.110802
rradius 18.846800
lwrist -17.317699
rhand -18.615801 -20.767599
rhumerus -48.636902 -12.456800 -69.995598
lowerneck -5.433660 -0.065483 0.565598
lhand -15.880300 19.383801
ltibia 63.372898
head 2.373150 -0.058102 -0.490981
rwrist 20.345501
lfingers 7.125020
rtoes 12.880700
lowerback -2.952460 -2.369920 6.535490
rfingers 7.125020
lclavicle -0.000000 0.000000
upperneck 4.556910 -0.061748 -1.231080
rfemur -19.885401 9.334760 27.204500
thorax -1.564500 -1.754370 -3.492070
rclavicle -0.000000 0.000000
rtibia 41.718399
lfoot -17.065001 2.312210
lhumerus -43.996399 12.745700 72.553703
rthumb 7.675950 -50.608299
root 15.537800 18.600201 30.379400 7.147920 2.567610 -2.010030
ltoes 12.043900
lfemur -32.241501 -8.392500 -15.458200
21
upperback -3.048320 -4.876270 0.721106
rfoot -21.977600 -15.829500
lradius 29.473801
lthumb 10.119000 48.965000
rradius 27.207399
lwrist -13.549200
rhand -18.979900 -21.718100
rhumerus -52.990501 -13.193000 -70.267403
lowerneck -5.726040 -0.140553 0.470510
lhand -16.084101 19.228300
ltibia 62.610802
head 2.142310 -0.105226 -0.128080
rwrist 12.602700
lfingers 7.125020
rtoes 15.093700
lowerback -3.512280 -3.544760 6.857790
rfingers 7.125020
lclavicle 0.000000 -0.000000
upperneck 3.704250 -0.218142 -0.126123
rfemur -26.519400 7.872770 25.784500
thorax -1.699130 -2.563170 -3.154210
rclavicle 0.000000 -0.000000
rtibia 39.381100
lfoot -2.087720 -5.723150
lhumerus -39.965401 8.272330 77.229500
rthumb 7.324550 -51.571301
root 15.688500 18.812500 28.298100 7.488310 5.643900 -2.929770
ltoes 15.006500
lfemur -15.833300 -3.822860 -13.771400
